# xmcd
#
# Track frame offsets:
#	150
#	13602
#	28489
#	43866
#	56795
#	71823
#	86216
#	102000
#	115145
#	129326
#
# Disc length: 1929 seconds
#
# Revision: 0
# Processed by: cddbd v1.5.2PL0 Copyright (c) Steve Scherf et al.
# Submitted via: dBpowerAMP V4.0
#
DISCID=8d07870a
DTITLE=Billie Holiday - All of Me
DYEAR=1900
DGENRE=Blues
TTITLE0=01 All of Me
TTITLE1=02 Fine and Mellow
TTITLE2=03 Don't Explain
TTITLE3=04 Them There Eyes
TTITLE4=05 Love Me or Leave Me
TTITLE5=06 I Cried For You
TTITLE6=07 I Cover The Waterfront
TTITLE7=08 I Only Have Eyes For You
TTITLE8=09 Good Morning Heartache
TTITLE9=10 You're My Thrill
EXTD=
EXTT0=
EXTT1=
EXTT2=
EXTT3=
EXTT4=
EXTT5=
EXTT6=
EXTT7=
EXTT8=
EXTT9=
PLAYORDER=
